<?xml version="1.0" encoding="UTF-8" standalone="no"?>
<svg
   width="200"
   height="200"
   viewBox="-100.0 -100.0 200 200"
   version="1.1"
   id="svg21"
   sodipodi:docname="colors_of_corners.svg"
   inkscape:version="1.3 (0e150ed6c4, 2023-07-21)"
   xmlns:inkscape="http://www.inkscape.org/namespaces/inkscape"
   xmlns:sodipodi="http://sodipodi.sourceforge.net/DTD/sodipodi-0.dtd"
   xmlns="http://www.w3.org/2000/svg"
   xmlns:svg="http://www.w3.org/2000/svg">
  <sodipodi:namedview
     id="namedview21"
     pagecolor="#505050"
     bordercolor="#eeeeee"
     borderopacity="1"
     inkscape:showpageshadow="0"
     inkscape:pageopacity="0"
     inkscape:pagecheckerboard="0"
     inkscape:deskcolor="#505050"
     inkscape:zoom="5.685"
     inkscape:cx="100"
     inkscape:cy="100"
     inkscape:window-width="2560"
     inkscape:window-height="1351"
     inkscape:window-x="-9"
     inkscape:window-y="-9"
     inkscape:window-maximized="1"
     inkscape:current-layer="svg21" />
  <defs
     id="defs1" />
  <path
     d="M-20.93353065868146,78.125 L20.93353065868146,-78.125"
     stroke="rgb(0, 0, 0)"
     stroke-width="1"
     transform="translate(0, 0) rotate(-30)"
     id="path1" />
  <path
     d="M0,0 L-13.397459621556134,50.0 L-36.60254037844386,36.60254037844387 Z"
     fill="rgb(255, 255, 255)"
     stroke="rgb(0, 0, 0)"
     stroke-width="1"
     transform="translate(0, 0) rotate(150)"
     id="path2"
     style="fill:#696969" />
  <path
     d="M-13.397459621556134,50.0 L-16.74682452694517,62.5 L-45.753175473054824,45.75317547305484 L-36.60254037844386,36.60254037844387 Z"
     fill="rgb(255, 0, 0)"
     stroke="rgb(0, 0, 0)"
     stroke-width="1"
     transform="translate(0, 0) rotate(150)"
     id="path3"
     style="fill:#696969" />
  <path
     d="M0,0 L-13.397459621556134,50.0 L-50.0,50.0 L-50.0,13.397459621556134 Z"
     fill="rgb(255, 255, 255)"
     stroke="rgb(0, 0, 0)"
     stroke-width="1"
     transform="translate(0, 0) rotate(180)"
     id="path4" />
  <path
     d="M-13.397459621556134,50.0 L-16.74682452694517,62.5 L-62.5,62.5 L-50.0,50.0 Z"
     fill="rgb(255, 0, 0)"
     stroke="rgb(0, 0, 0)"
     stroke-width="1"
     transform="translate(0, 0) rotate(180)"
     id="path5" />
  <path
     d="M-50.0,50.0 L-62.5,62.5 L-62.5,16.74682452694517 L-50.0,13.397459621556134 Z"
     fill="rgb(0, 255, 0)"
     stroke="rgb(0, 0, 0)"
     stroke-width="1"
     transform="translate(0, 0) rotate(180)"
     id="path6"
     style="fill:#696969" />
  <path
     d="M0,0 L-13.397459621556134,50.0 L-36.60254037844386,36.60254037844387 Z"
     fill="rgb(255, 255, 255)"
     stroke="rgb(0, 0, 0)"
     stroke-width="1"
     transform="translate(0, 0) rotate(240)"
     id="path7"
     style="fill:#696969" />
  <path
     d="M-13.397459621556134,50.0 L-16.74682452694517,62.5 L-45.753175473054824,45.75317547305484 L-36.60254037844386,36.60254037844387 Z"
     fill="rgb(0, 255, 0)"
     stroke="rgb(0, 0, 0)"
     stroke-width="1"
     transform="translate(0, 0) rotate(240)"
     id="path8"
     style="fill:#696969" />
  <path
     d="M0,0 L-13.397459621556134,50.0 L-50.0,50.0 L-50.0,13.397459621556134 Z"
     fill="rgb(255, 255, 255)"
     stroke="rgb(0, 0, 0)"
     stroke-width="1"
     transform="translate(0, 0) rotate(270)"
     id="path9" />
  <path
     d="M-13.397459621556134,50.0 L-16.74682452694517,62.5 L-62.5,62.5 L-50.0,50.0 Z"
     fill="rgb(0, 255, 0)"
     stroke="rgb(0, 0, 0)"
     stroke-width="1"
     transform="translate(0, 0) rotate(270)"
     id="path10" />
  <path
     d="M-50.0,50.0 L-62.5,62.5 L-62.5,16.74682452694517 L-50.0,13.397459621556134 Z"
     fill="rgb(255, 165, 0)"
     stroke="rgb(0, 0, 0)"
     stroke-width="1"
     transform="translate(0, 0) rotate(270)"
     id="path11"
     style="fill:#696969" />
  <path
     d="M0,0 L-13.397459621556134,50.0 L-36.60254037844386,36.60254037844387 Z"
     fill="rgb(255, 255, 255)"
     stroke="rgb(0, 0, 0)"
     stroke-width="1"
     transform="translate(0, 0) rotate(330)"
     id="path12"
     style="fill:#696969" />
  <path
     d="M-13.397459621556134,50.0 L-16.74682452694517,62.5 L-45.753175473054824,45.75317547305484 L-36.60254037844386,36.60254037844387 Z"
     fill="rgb(255, 165, 0)"
     stroke="rgb(0, 0, 0)"
     stroke-width="1"
     transform="translate(0, 0) rotate(330)"
     id="path13"
     style="fill:#696969" />
  <path
     d="M0,0 L-13.397459621556134,50.0 L-50.0,50.0 L-50.0,13.397459621556134 Z"
     fill="rgb(255, 255, 255)"
     stroke="rgb(0, 0, 0)"
     stroke-width="1"
     transform="translate(0, 0) rotate(360)"
     id="path14" />
  <path
     d="M-13.397459621556134,50.0 L-16.74682452694517,62.5 L-62.5,62.5 L-50.0,50.0 Z"
     fill="rgb(255, 165, 0)"
     stroke="rgb(0, 0, 0)"
     stroke-width="1"
     transform="translate(0, 0) rotate(360)"
     id="path15" />
  <path
     d="M-50.0,50.0 L-62.5,62.5 L-62.5,16.74682452694517 L-50.0,13.397459621556134 Z"
     fill="rgb(0, 73, 255)"
     stroke="rgb(0, 0, 0)"
     stroke-width="1"
     transform="translate(0, 0) rotate(360)"
     id="path16"
     style="fill:#696969" />
  <path
     d="M0,0 L-13.397459621556134,50.0 L-36.60254037844386,36.60254037844387 Z"
     fill="rgb(255, 255, 255)"
     stroke="rgb(0, 0, 0)"
     stroke-width="1"
     transform="translate(0, 0) rotate(420)"
     id="path17"
     style="fill:#696969" />
  <path
     d="M-13.397459621556134,50.0 L-16.74682452694517,62.5 L-45.753175473054824,45.75317547305484 L-36.60254037844386,36.60254037844387 Z"
     fill="rgb(0, 73, 255)"
     stroke="rgb(0, 0, 0)"
     stroke-width="1"
     transform="translate(0, 0) rotate(420)"
     id="path18"
     style="fill:#696969" />
  <path
     d="M0,0 L-13.397459621556134,50.0 L-50.0,50.0 L-50.0,13.397459621556134 Z"
     fill="rgb(255, 255, 255)"
     stroke="rgb(0, 0, 0)"
     stroke-width="1"
     transform="translate(0, 0) rotate(450)"
     id="path19" />
  <path
     d="M-13.397459621556134,50.0 L-16.74682452694517,62.5 L-62.5,62.5 L-50.0,50.0 Z"
     fill="rgb(0, 73, 255)"
     stroke="rgb(0, 0, 0)"
     stroke-width="1"
     transform="translate(0, 0) rotate(450)"
     id="path20" />
  <path
     d="M-50.0,50.0 L-62.5,62.5 L-62.5,16.74682452694517 L-50.0,13.397459621556134 Z"
     fill="rgb(255, 0, 0)"
     stroke="rgb(0, 0, 0)"
     stroke-width="1"
     transform="translate(0, 0) rotate(450)"
     id="path21"
     style="fill:#696969" />
</svg>
