<?xml version="1.0" encoding="UTF-8" standalone="no"?>
<svg
   width="200"
   height="200"
   viewBox="-100.0 -100.0 200 200"
   version="1.1"
   id="svg8"
   sodipodi:docname="I.svg"
   inkscape:export-filename="I.png"
   inkscape:export-xdpi="192"
   inkscape:export-ydpi="192"
   inkscape:version="1.3 (0e150ed6c4, 2023-07-21)"
   xmlns:inkscape="http://www.inkscape.org/namespaces/inkscape"
   xmlns:sodipodi="http://sodipodi.sourceforge.net/DTD/sodipodi-0.dtd"
   xmlns="http://www.w3.org/2000/svg"
   xmlns:svg="http://www.w3.org/2000/svg">
  <sodipodi:namedview
     id="namedview8"
     pagecolor="#505050"
     bordercolor="#eeeeee"
     borderopacity="1"
     inkscape:showpageshadow="0"
     inkscape:pageopacity="0"
     inkscape:pagecheckerboard="0"
     inkscape:deskcolor="#505050"
     inkscape:zoom="3.885"
     inkscape:cx="100"
     inkscape:cy="100"
     inkscape:window-width="1920"
     inkscape:window-height="991"
     inkscape:window-x="-9"
     inkscape:window-y="-9"
     inkscape:window-maximized="1"
     inkscape:current-layer="svg8" />
  <defs
     id="defs1" />
  <path
     d="M-20.93353065868146,78.125 L20.93353065868146,-78.125"
     stroke="rgb(0, 0, 0)"
     stroke-width="1"
     transform="translate(0, 0) rotate(-30)"
     id="path1" />
  <path
     d="M0,0 L-13.397459621556134,50.0 L-36.60254037844386,36.60254037844387 Z"
     fill="rgb(100, 100, 100)"
     stroke="rgb(0, 0, 0)"
     stroke-width="1"
     transform="translate(0, 0) rotate(150)"
     id="path2"
     style="fill:#674ea7;fill-opacity:1" />
  <path
     d="M0,0 L-13.397459621556134,50.0 L-50.0,50.0 L-50.0,13.397459621556134 Z"
     fill="rgb(100, 100, 100)"
     stroke="rgb(0, 0, 0)"
     stroke-width="1"
     transform="translate(0, 0) rotate(180)"
     id="path3" />
  <path
     d="M0,0 L-13.397459621556134,50.0 L-50.0,50.0 L-50.0,13.397459621556134 Z"
     fill="rgb(100, 100, 100)"
     stroke="rgb(0, 0, 0)"
     stroke-width="1"
     transform="translate(0, 0) rotate(240)"
     id="path4"
     style="fill:#00ffff;fill-opacity:1" />
  <path
     d="M0,0 L-13.397459621556134,50.0 L-36.60254037844386,36.60254037844387 Z"
     fill="rgb(100, 100, 100)"
     stroke="rgb(0, 0, 0)"
     stroke-width="1"
     transform="translate(0, 0) rotate(300)"
     id="path5" />
  <path
     d="M0,0 L-13.397459621556134,50.0 L-50.0,50.0 L-50.0,13.397459621556134 Z"
     fill="rgb(100, 100, 100)"
     stroke="rgb(0, 0, 0)"
     stroke-width="1"
     transform="translate(0, 0) rotate(330)"
     id="path6" />
  <path
     d="M0,0 L-13.397459621556134,50.0 L-50.0,50.0 L-50.0,13.397459621556134 Z"
     fill="rgb(100, 100, 100)"
     stroke="rgb(0, 0, 0)"
     stroke-width="1"
     transform="translate(0, 0) rotate(390)"
     id="path7"
     style="fill:#00ffff;fill-opacity:1" />
  <path
     d="M0,0 L-13.397459621556134,50.0 L-50.0,50.0 L-50.0,13.397459621556134 Z"
     fill="rgb(100, 100, 100)"
     stroke="rgb(0, 0, 0)"
     stroke-width="1"
     transform="translate(0, 0) rotate(450)"
     id="path8" />
</svg>
