<?xml version="1.0" encoding="UTF-8"?>
<svg xmlns="http://www.w3.org/2000/svg" xmlns:xlink="http://www.w3.org/1999/xlink"
     width="200" height="380.0" viewBox="-100.0 -190.0 200 380.0">
<defs>
</defs>
<path d="M-20.93353065868146,78.125 L20.93353065868146,-78.125" stroke="rgb(0, 0, 0)" stroke-width="1" transform="translate(0, -90.0)" />
<path d="M0,0 L-13.397459621556134,50.0 L-36.60254037844386,36.60254037844387 Z" fill="rgb(255, 255, 255)" stroke="rgb(0, 0, 0)" stroke-width="1" transform="translate(0, -90.0) rotate(0)" />
<path d="M-13.397459621556134,50.0 L-16.74682452694517,62.5 L-45.753175473054824,45.75317547305484 L-36.60254037844386,36.60254037844387 Z" fill="rgb(255, 165, 0)" stroke="rgb(0, 0, 0)" stroke-width="1" transform="translate(0, -90.0) rotate(0)" />
<path d="M0,0 L-13.397459621556134,50.0 L-36.60254037844386,36.60254037844387 Z" fill="rgb(40, 40, 40)" stroke="rgb(0, 0, 0)" stroke-width="1" transform="translate(0, -90.0) rotate(30)" />
<path d="M-13.397459621556134,50.0 L-16.74682452694517,62.5 L-45.753175473054824,45.75317547305484 L-36.60254037844386,36.60254037844387 Z" fill="rgb(0, 255, 0)" stroke="rgb(0, 0, 0)" stroke-width="1" transform="translate(0, -90.0) rotate(30)" />
<path d="M0,0 L-13.397459621556134,50.0 L-50.0,50.0 L-50.0,13.397459621556134 Z" fill="rgb(40, 40, 40)" stroke="rgb(0, 0, 0)" stroke-width="1" transform="translate(0, -90.0) rotate(60)" />
<path d="M-13.397459621556134,50.0 L-16.74682452694517,62.5 L-62.5,62.5 L-50.0,50.0 Z" fill="rgb(0, 255, 0)" stroke="rgb(0, 0, 0)" stroke-width="1" transform="translate(0, -90.0) rotate(60)" />
<path d="M-50.0,50.0 L-62.5,62.5 L-62.5,16.74682452694517 L-50.0,13.397459621556134 Z" fill="rgb(255, 0, 0)" stroke="rgb(0, 0, 0)" stroke-width="1" transform="translate(0, -90.0) rotate(60)" />
<path d="M0,0 L-13.397459621556134,50.0 L-36.60254037844386,36.60254037844387 Z" fill="rgb(40, 40, 40)" stroke="rgb(0, 0, 0)" stroke-width="1" transform="translate(0, -90.0) rotate(120)" />
<path d="M-13.397459621556134,50.0 L-16.74682452694517,62.5 L-45.753175473054824,45.75317547305484 L-36.60254037844386,36.60254037844387 Z" fill="rgb(255, 0, 0)" stroke="rgb(0, 0, 0)" stroke-width="1" transform="translate(0, -90.0) rotate(120)" />
<path d="M0,0 L-13.397459621556134,50.0 L-36.60254037844386,36.60254037844387 Z" fill="rgb(40, 40, 40)" stroke="rgb(0, 0, 0)" stroke-width="1" transform="translate(0, -90.0) rotate(150)" />
<path d="M-13.397459621556134,50.0 L-16.74682452694517,62.5 L-45.753175473054824,45.75317547305484 L-36.60254037844386,36.60254037844387 Z" fill="rgb(255, 165, 0)" stroke="rgb(0, 0, 0)" stroke-width="1" transform="translate(0, -90.0) rotate(150)" />
<path d="M0,0 L-13.397459621556134,50.0 L-50.0,50.0 L-50.0,13.397459621556134 Z" fill="rgb(255, 255, 255)" stroke="rgb(0, 0, 0)" stroke-width="1" transform="translate(0, -90.0) rotate(180)" />
<path d="M-13.397459621556134,50.0 L-16.74682452694517,62.5 L-62.5,62.5 L-50.0,50.0 Z" fill="rgb(0, 255, 0)" stroke="rgb(0, 0, 0)" stroke-width="1" transform="translate(0, -90.0) rotate(180)" />
<path d="M-50.0,50.0 L-62.5,62.5 L-62.5,16.74682452694517 L-50.0,13.397459621556134 Z" fill="rgb(255, 165, 0)" stroke="rgb(0, 0, 0)" stroke-width="1" transform="translate(0, -90.0) rotate(180)" />
<path d="M0,0 L-13.397459621556134,50.0 L-50.0,50.0 L-50.0,13.397459621556134 Z" fill="rgb(40, 40, 40)" stroke="rgb(0, 0, 0)" stroke-width="1" transform="translate(0, -90.0) rotate(240)" />
<path d="M-13.397459621556134,50.0 L-16.74682452694517,62.5 L-62.5,62.5 L-50.0,50.0 Z" fill="rgb(255, 0, 0)" stroke="rgb(0, 0, 0)" stroke-width="1" transform="translate(0, -90.0) rotate(240)" />
<path d="M-50.0,50.0 L-62.5,62.5 L-62.5,16.74682452694517 L-50.0,13.397459621556134 Z" fill="rgb(0, 73, 255)" stroke="rgb(0, 0, 0)" stroke-width="1" transform="translate(0, -90.0) rotate(240)" />
<path d="M0,0 L-13.397459621556134,50.0 L-50.0,50.0 L-50.0,13.397459621556134 Z" fill="rgb(255, 255, 255)" stroke="rgb(0, 0, 0)" stroke-width="1" transform="translate(0, -90.0) rotate(300)" />
<path d="M-13.397459621556134,50.0 L-16.74682452694517,62.5 L-62.5,62.5 L-50.0,50.0 Z" fill="rgb(255, 165, 0)" stroke="rgb(0, 0, 0)" stroke-width="1" transform="translate(0, -90.0) rotate(300)" />
<path d="M-50.0,50.0 L-62.5,62.5 L-62.5,16.74682452694517 L-50.0,13.397459621556134 Z" fill="rgb(0, 73, 255)" stroke="rgb(0, 0, 0)" stroke-width="1" transform="translate(0, -90.0) rotate(300)" />
<path d="M-20.93353065868146,78.125 L20.93353065868146,-78.125" stroke="rgb(0, 0, 0)" stroke-width="1" transform="translate(0, 90.0) rotate(-30)" />
<path d="M0,0 L-13.397459621556134,50.0 L-36.60254037844386,36.60254037844387 Z" fill="rgb(255, 255, 255)" stroke="rgb(0, 0, 0)" stroke-width="1" transform="translate(0, 90.0) rotate(150)" />
<path d="M-13.397459621556134,50.0 L-16.74682452694517,62.5 L-45.753175473054824,45.75317547305484 L-36.60254037844386,36.60254037844387 Z" fill="rgb(255, 0, 0)" stroke="rgb(0, 0, 0)" stroke-width="1" transform="translate(0, 90.0) rotate(150)" />
<path d="M0,0 L-13.397459621556134,50.0 L-50.0,50.0 L-50.0,13.397459621556134 Z" fill="rgb(255, 255, 255)" stroke="rgb(0, 0, 0)" stroke-width="1" transform="translate(0, 90.0) rotate(180)" />
<path d="M-13.397459621556134,50.0 L-16.74682452694517,62.5 L-62.5,62.5 L-50.0,50.0 Z" fill="rgb(255, 0, 0)" stroke="rgb(0, 0, 0)" stroke-width="1" transform="translate(0, 90.0) rotate(180)" />
<path d="M-50.0,50.0 L-62.5,62.5 L-62.5,16.74682452694517 L-50.0,13.397459621556134 Z" fill="rgb(0, 255, 0)" stroke="rgb(0, 0, 0)" stroke-width="1" transform="translate(0, 90.0) rotate(180)" />
<path d="M0,0 L-13.397459621556134,50.0 L-50.0,50.0 L-50.0,13.397459621556134 Z" fill="rgb(40, 40, 40)" stroke="rgb(0, 0, 0)" stroke-width="1" transform="translate(0, 90.0) rotate(240)" />
<path d="M-13.397459621556134,50.0 L-16.74682452694517,62.5 L-62.5,62.5 L-50.0,50.0 Z" fill="rgb(255, 165, 0)" stroke="rgb(0, 0, 0)" stroke-width="1" transform="translate(0, 90.0) rotate(240)" />
<path d="M-50.0,50.0 L-62.5,62.5 L-62.5,16.74682452694517 L-50.0,13.397459621556134 Z" fill="rgb(0, 255, 0)" stroke="rgb(0, 0, 0)" stroke-width="1" transform="translate(0, 90.0) rotate(240)" />
<path d="M0,0 L-13.397459621556134,50.0 L-36.60254037844386,36.60254037844387 Z" fill="rgb(40, 40, 40)" stroke="rgb(0, 0, 0)" stroke-width="1" transform="translate(0, 90.0) rotate(300)" />
<path d="M-13.397459621556134,50.0 L-16.74682452694517,62.5 L-45.753175473054824,45.75317547305484 L-36.60254037844386,36.60254037844387 Z" fill="rgb(0, 73, 255)" stroke="rgb(0, 0, 0)" stroke-width="1" transform="translate(0, 90.0) rotate(300)" />
<path d="M0,0 L-13.397459621556134,50.0 L-36.60254037844386,36.60254037844387 Z" fill="rgb(255, 255, 255)" stroke="rgb(0, 0, 0)" stroke-width="1" transform="translate(0, 90.0) rotate(330)" />
<path d="M-13.397459621556134,50.0 L-16.74682452694517,62.5 L-45.753175473054824,45.75317547305484 L-36.60254037844386,36.60254037844387 Z" fill="rgb(0, 73, 255)" stroke="rgb(0, 0, 0)" stroke-width="1" transform="translate(0, 90.0) rotate(330)" />
<path d="M0,0 L-13.397459621556134,50.0 L-50.0,50.0 L-50.0,13.397459621556134 Z" fill="rgb(255, 255, 255)" stroke="rgb(0, 0, 0)" stroke-width="1" transform="translate(0, 90.0) rotate(360)" />
<path d="M-13.397459621556134,50.0 L-16.74682452694517,62.5 L-62.5,62.5 L-50.0,50.0 Z" fill="rgb(0, 73, 255)" stroke="rgb(0, 0, 0)" stroke-width="1" transform="translate(0, 90.0) rotate(360)" />
<path d="M-50.0,50.0 L-62.5,62.5 L-62.5,16.74682452694517 L-50.0,13.397459621556134 Z" fill="rgb(255, 0, 0)" stroke="rgb(0, 0, 0)" stroke-width="1" transform="translate(0, 90.0) rotate(360)" />
<path d="M0,0 L-13.397459621556134,50.0 L-36.60254037844386,36.60254037844387 Z" fill="rgb(255, 255, 255)" stroke="rgb(0, 0, 0)" stroke-width="1" transform="translate(0, 90.0) rotate(420)" />
<path d="M-13.397459621556134,50.0 L-16.74682452694517,62.5 L-45.753175473054824,45.75317547305484 L-36.60254037844386,36.60254037844387 Z" fill="rgb(0, 255, 0)" stroke="rgb(0, 0, 0)" stroke-width="1" transform="translate(0, 90.0) rotate(420)" />
<path d="M0,0 L-13.397459621556134,50.0 L-50.0,50.0 L-50.0,13.397459621556134 Z" fill="rgb(40, 40, 40)" stroke="rgb(0, 0, 0)" stroke-width="1" transform="translate(0, 90.0) rotate(450)" />
<path d="M-13.397459621556134,50.0 L-16.74682452694517,62.5 L-62.5,62.5 L-50.0,50.0 Z" fill="rgb(0, 73, 255)" stroke="rgb(0, 0, 0)" stroke-width="1" transform="translate(0, 90.0) rotate(450)" />
<path d="M-50.0,50.0 L-62.5,62.5 L-62.5,16.74682452694517 L-50.0,13.397459621556134 Z" fill="rgb(255, 165, 0)" stroke="rgb(0, 0, 0)" stroke-width="1" transform="translate(0, 90.0) rotate(450)" />
</svg>